<svg xmlns="http://www.w3.org/2000/svg" height="60" width="120"><path d="M49.122 13.994c-.942-.667-1.626-1.343-1.626-2.176h-5.237c0 1.5-.685 2.176-1.53 2.176h-1.398v15.229h27.195v-15.23H49.024zm-1.627 4.35h-4.9V16.17h5.439v1.75zm9.205 8.47c-3.102 0-5.627-2.491-5.627-5.555 0-3.063 2.525-5.427 5.627-5.427 3.103 0 5.627 2.364 5.627 5.427 0 3.064-2.524 5.556-5.627 5.556zm3.025-5.555c0 1.647-1.357 2.987-3.024 2.987-1.668 0-3.025-1.34-3.025-2.987 0-1.646 1.357-2.986 3.025-2.986 1.667 0 3.024 1.34 3.024 2.986zm20.943-9.337l-6.77 17.26-5.195-2.083v-2.942l3.608 1.477 4.764-12.145-17.852-6.826-1.655 5.155H54.59l3.046-8.703 23.034 8.807z" fill="#FFFFFF"/><g font-weight="400" font-family="VomZom" letter-spacing="0" word-spacing="0" fill="#FFFFFF"><path style="line-height:125%" d="M25.47 39.642c2.995-.07 5.805 2.366 6.122 5.352.378 2.625-1.166 5.35-3.585 6.415-1.466.728-3.121.504-4.698.541h-1.54v4.935h-2.44c.006-3.808-.009-7.615.008-11.423.08-2.835 2.403-5.376 5.207-5.753.306-.046.617-.068.926-.068zm0 9.868c1.76.044 3.41-1.329 3.673-3.072.35-1.755-.768-3.64-2.48-4.167-1.653-.586-3.641.186-4.448 1.747-.627 1.066-.404 2.327-.446 3.502v1.99h3.701zM32.772 39.582h2.412V51.89h-2.412zM42.432 47.353h.088l3.428 4.572h2.99l-4.66-6.33 4.132-5.978h-2.99l-2.9 4.22h-.088l-2.901-4.22h-2.99l4.133 5.978-4.66 6.33h2.99z"/><path style="line-height:125%" d="M54.4 39.582c2.442-.048 4.785 1.552 5.69 3.812.471 1.049.465 2.212.45 3.338v5.159c-2.177-.008-4.355.015-6.532-.012-2.502-.122-4.79-1.947-5.507-4.342-.657-2.082-.111-4.5 1.435-6.054 1.155-1.195 2.796-1.917 4.463-1.901zm3.7 9.87c-.01-1.37.022-2.74-.018-4.107-.144-1.834-1.843-3.37-3.683-3.323-1.75-.042-3.399 1.315-3.673 3.047-.32 1.663.634 3.474 2.22 4.094.977.427 2.057.25 3.09.288H58.1zM67.882 39.642c2.889-.072 5.589 2.201 6.049 5.047.522 2.697-1.002 5.61-3.513 6.72-2.454 1.158-5.61.412-7.297-1.71-1.046-1.232-1.497-2.87-1.407-4.468V34.707h2.439v4.934h3.729zm0 9.868c1.853.05 3.546-1.506 3.682-3.35.233-1.831-1.126-3.674-2.939-4.007-1.003-.137-2.021-.045-3.031-.072h-1.44c.015 1.39-.034 2.784.027 4.173.194 1.837 1.855 3.292 3.7 3.256zM81.103 39.582c2.443-.048 4.786 1.552 5.69 3.812.473 1.049.466 2.212.45 3.338v5.159c-2.176-.008-4.354.015-6.53-.012-2.503-.122-4.792-1.947-5.508-4.342-.657-2.082-.111-4.5 1.435-6.054 1.155-1.195 2.796-1.917 4.463-1.901zm3.701 9.87c-.01-1.37.022-2.74-.018-4.107-.144-1.834-1.843-3.37-3.683-3.323-1.75-.042-3.399 1.315-3.673 3.047-.32 1.663.634 3.474 2.22 4.094.977.427 2.057.25 3.09.288h2.064zM100.67 39.612c-.005 3.798.01 7.597-.007 11.394-.089 2.99-2.658 5.676-5.657 5.832-.57.03-1.14.012-1.71.017v-2.44c1.04-.005 2.154.101 3.076-.489 1.152-.646 1.884-1.948 1.858-3.266-2.163 1.744-5.515 1.653-7.618-.147-1.532-1.236-2.37-3.226-2.251-5.184v-5.717h2.44c.01 2.173-.024 4.347.017 6.52.133 1.788 1.728 3.302 3.52 3.345 1.817.14 3.565-1.271 3.836-3.068.11-1.075.032-2.161.055-3.241v-3.556h2.44z"/></g></svg>